<?xml version="1.0" encoding="iso-8859-1"?>
<!-- Uploaded to: SVG Repo, www.svgrepo.com, Generator: SVG Repo Mixer Tools -->
<svg fill="#000000" height="800px" width="800px" version="1.1" id="Layer_1" xmlns="http://www.w3.org/2000/svg" xmlns:xlink="http://www.w3.org/1999/xlink" 
	 viewBox="0 0 227.578 227.578" xml:space="preserve">
<g>
	<g>
		<g>
			<path d="M218.436,167.266L148.02,54.69c-10.664-17.04-30.896-25.184-49.324-21.092c-0.984-6.748-3.68-13.288-8.136-18.884
				C84.04,6.526,74.74,1.386,64.372,0.242C54.004-0.91,43.82,2.082,35.688,8.646c-16.324,13.184-19.284,36.956-7.06,53.8
				C16.128,70.082,7.736,83.81,7.736,99.502c0,14.684,7.4,27.588,18.592,35.448c-1.176,1.148-1.916,2.74-1.916,4.508
				c-0.004,1.684,0.652,3.272,1.848,4.468c1.196,1.196,2.78,1.86,4.464,1.86l7.612,0.008L38.3,172.958
				c0,0.772,0.444,1.476,1.148,1.8l2.748,1.276l-3.328,2.94c-0.424,0.376-0.672,0.916-0.672,1.484c0,0.568,0.244,1.108,0.668,1.488
				l3.916,3.476l-3.92,3.464c-0.424,0.376-0.672,0.916-0.672,1.484s0.244,1.108,0.668,1.488l3.912,3.476l-3.916,3.468
				c-0.424,0.376-0.672,0.916-0.672,1.484s0.244,1.108,0.668,1.484l3.316,2.948l-2.752,1.268c-0.704,0.324-1.152,1.028-1.152,1.8
				l-0.004,4.164c0,0.448,0.152,0.884,0.428,1.236l10.82,13.64c0.376,0.476,0.944,0.752,1.552,0.752c0.004,0,0.004,0,0.004,0
				c0.604,0,1.176-0.276,1.552-0.748l10.86-13.612c0.28-0.352,0.432-0.788,0.432-1.236l0.088-66.152l7.612,0.008
				c0.004,0,0.008,0,0.012,0c3.48,0,6.316-2.832,6.32-6.312c0-1.772-0.732-3.372-1.908-4.52c3.704-2.608,6.984-5.76,9.72-9.368
				l56.032,89.568c1.308,2.096,3.356,3.556,5.764,4.108c0.696,0.16,1.396,0.24,2.092,0.24c1.716,0,3.4-0.48,4.884-1.412
				l60.976-38.14c2.096-1.312,3.556-3.356,4.108-5.764S219.744,169.358,218.436,167.266z M97.496,50.566
				c1.016,0.448,1.928,1.096,2.528,2.06c1.644,2.624,0.844,6.096-1.78,7.74c-1.684,1.048-3.716,1.088-5.392,0.292
				C94.9,57.482,96.452,54.086,97.496,50.566z M90.052,57.678c-0.988-2.472-0.108-5.372,2.228-6.836
				c0.356-0.22,0.74-0.368,1.128-0.504C92.58,52.874,91.472,55.342,90.052,57.678z M38.172,11.766
				c7.3-5.904,16.476-8.58,25.764-7.552c9.312,1.032,17.668,5.648,23.528,13.004c4.108,5.156,6.552,11.204,7.376,17.432
				c-2.004,0.644-3.988,1.392-5.916,2.352c-9.712,4.824-17.08,12.684-21.292,22.428c-5.088-2.108-10.616-3.356-16.46-3.356
				c-6.836,0-13.28,1.632-19.04,4.456C20.788,45.37,23.368,23.718,38.172,11.766z M59.016,76.402h0.004
				c1.14,0,2.072,0.928,2.072,2.072c0,1.144-0.928,2.072-2.072,2.072H43.324c-1.14,0-2.068-0.928-2.068-2.072
				c0-1.144,0.932-2.076,2.072-2.076h4c3.06,1.06,6.256,1.788,9.576,2.064c0.056,0.004,0.112,0.008,0.168,0.008
				c1.02,0,1.888-0.792,1.972-1.832C59.052,76.554,59.02,76.482,59.016,76.402z M59.02,72.43H48.064
				c-5.024-1.836-9.56-4.8-13.308-8.772c5.008-2.304,10.556-3.624,16.416-3.624c5.348,0,10.408,1.14,15.06,3.08
				c-0.236,0.704-0.508,1.384-0.712,2.104c-0.9,3.204-1.424,6.464-1.616,9.728C62.804,73.43,61.032,72.43,59.02,72.43z
				 M71.616,141.878l-9.6-0.012c-0.004,0-0.004,0-0.004,0c-1.092,0-1.984,0.888-1.984,1.984l-0.092,67.444l-8.016,10.048v-66.18
				c0-0.408-0.332-0.736-0.74-0.736c-0.408,0-0.74,0.332-0.74,0.736v66.464l-8.22-10.36l0.004-2.204l4.352-2.004
				c0.604-0.28,1.032-0.848,1.128-1.512c0.1-0.664-0.14-1.332-0.644-1.772l-3.912-3.476l3.916-3.468
				c0.424-0.376,0.672-0.916,0.672-1.484s-0.244-1.108-0.668-1.484l-3.912-3.476l3.92-3.464c0.424-0.376,0.672-0.916,0.672-1.484
				c0-0.568-0.244-1.108-0.668-1.488l-3.916-3.476l3.92-3.464c0.504-0.44,0.748-1.108,0.652-1.772s-0.52-1.232-1.128-1.512
				l-4.348-2.02l0.04-27.88c0-0.524-0.208-1.032-0.58-1.404c-0.372-0.372-0.88-0.584-1.404-0.584l-9.596-0.012
				c-0.624,0-1.216-0.248-1.66-0.696c-0.448-0.448-0.692-1.036-0.692-1.66c0.004-1.296,1.06-2.348,2.352-2.348
				c0.004,0,0.004,0,0.004,0l40.884,0.056c1.296,0,2.352,1.06,2.348,2.352C73.964,140.826,72.908,141.878,71.616,141.878z
				 M71.364,133.206l-40.62-0.056H30.74c-11.372-6.932-19.036-19.38-19.036-33.648c0-14.444,7.824-27.064,19.432-33.94
				c2.728,3.06,5.848,5.624,9.284,7.648c-1.856,1.032-3.128,2.988-3.128,5.26c0,3.332,2.708,6.04,6.036,6.04h15.696
				c2.108,0,3.964-1.092,5.044-2.732c0.644,6.948,2.824,13.724,6.576,19.728l12.808,20.472
				C80.26,126.526,76.14,130.334,71.364,133.206z M215.74,173.354c-0.316,1.376-1.148,2.544-2.344,3.292l-60.98,38.14
				c-1.192,0.752-2.616,0.984-3.98,0.668c-1.376-0.316-2.544-1.152-3.288-2.344L74.012,99.398
				c-6.136-9.808-7.84-21.872-4.668-33.096c3.208-11.356,10.788-20.5,21.348-25.748c1.46-0.728,2.96-1.316,4.472-1.844
				c0.044,2.472-0.192,4.944-0.664,7.384c-1.516,0.12-2.992,0.556-4.32,1.388c-4.484,2.804-5.848,8.728-3.048,13.208
				c0.248,0.396,2.292,2.652,2.64,2.68c1.628,1.144,3.532,1.82,5.504,1.82c1.736,0,3.492-0.472,5.068-1.456
				c4.484-2.804,5.848-8.728,3.048-13.208c-1.164-1.86-2.912-3.196-4.956-3.916c0.556-2.984,0.776-6.016,0.64-9.036
				c16.952-3.992,35.724,3.464,45.576,19.228l70.416,112.576C215.82,170.566,216.056,171.982,215.74,173.354z"/>
			<path d="M127.852,113.402l-1.7-2.716l20.224-12.648c0.32-0.2,0.548-0.516,0.632-0.884c0.084-0.368,0.02-0.752-0.18-1.072
				l-4.744-7.58c-0.212-0.332-0.548-0.568-0.932-0.64l-31.956-6.148c-0.392-0.064-0.792,0.016-1.116,0.256l-7.428,5.528
				c-0.588,0.44-0.748,1.26-0.356,1.888l10.668,17.048l-5.012,3.136c-0.664,0.416-0.868,1.288-0.452,1.952l4.68,7.484
				c0.2,0.32,0.52,0.544,0.884,0.628c0.372,0.092,0.752,0.02,1.072-0.18l5.016-3.136l1.696,2.716c0.2,0.32,0.52,0.544,0.888,0.628
				c0.1,0.024,0.212,0.036,0.316,0.036c0.264,0,0.524-0.076,0.752-0.216l6.604-4.132
				C128.06,114.942,128.264,114.066,127.852,113.402z M120.492,116.334l-1.696-2.716c-0.268-0.428-0.732-0.668-1.204-0.668
				c-0.256,0-0.52,0.072-0.752,0.216l-5.016,3.136l-3.176-5.084l5.012-3.136c0.32-0.2,0.548-0.516,0.632-0.884
				c0.084-0.368,0.02-0.752-0.18-1.072l-10.728-17.14l5.88-4.376l30.74,5.916l3.664,5.856l-20.224,12.648
				c-0.32,0.2-0.548,0.516-0.632,0.884s-0.02,0.752,0.18,1.072l1.7,2.716L120.492,116.334z"/>
			<path d="M133.088,94.866c-0.108-0.576-0.564-1.024-1.14-1.128l-19.096-3.432c-0.548-0.1-1.108,0.136-1.424,0.6
				c-0.312,0.464-0.324,1.072-0.028,1.548l6.916,11.056c0.268,0.428,0.732,0.668,1.204,0.668c0.256,0,0.52-0.072,0.752-0.216
				l12.18-7.62C132.948,96.022,133.2,95.438,133.088,94.866z M119.968,100.802l-4.468-7.14l12.336,2.22L119.968,100.802z"/>
			<path d="M156.124,145.942c10.244-6.408,12.864-16.932,6.684-26.816c-6.292-10.06-16.976-12.424-27.22-6.016l-4.992,3.124
				c-11.644,7.28-11.62,18.912-6.436,27.208c3.304,5.28,8.876,9.184,15.616,9.184c3.536,0,7.392-1.076,11.408-3.588L156.124,145.942
				z M126.564,141.934c-4.112-6.58-5.132-16.628,5.532-23.3l4.992-3.124c10.664-6.664,19.036-1.724,23.312,5.12
				c4.196,6.704,4.88,16.244-5.776,22.912l-4.94,3.092C138.972,153.322,130.532,148.286,126.564,141.934z"/>
			<path d="M155.856,123.474c-1.62-2.592-3.86-4.26-6.476-4.828c-2.808-0.6-5.956,0.116-9.092,2.08l-4.944,3.092
				c-6.236,3.9-7.988,9.704-4.584,15.156c2.04,3.252,4.98,4.92,8.344,4.92c2.296,0,4.788-0.78,7.316-2.36l4.944-3.092
				c3.076-1.92,5.092-4.364,5.84-7.064C157.928,128.766,157.46,126.034,155.856,123.474z M154.476,130.622
				c-0.556,2-2.148,3.876-4.608,5.416l-4.944,3.092c-4.904,3.064-9.184,2.452-11.752-1.664c-2.556-4.088-1.216-8.188,3.676-11.248
				l4.944-3.092c2.548-1.592,4.888-2.176,6.996-1.712c1.848,0.4,3.464,1.632,4.668,3.56
				C154.624,126.846,154.98,128.798,154.476,130.622z"/>
			<path d="M185.168,157.378c-0.212-0.332-0.548-0.568-0.932-0.64l-31.956-6.148c-0.388-0.068-0.796,0.016-1.116,0.256l-7.424,5.528
				c-0.588,0.44-0.748,1.26-0.356,1.888l10.664,17.048l-5.012,3.136c-0.32,0.2-0.548,0.516-0.632,0.884
				c-0.084,0.368-0.02,0.752,0.18,1.072l4.684,7.488c0.2,0.32,0.52,0.544,0.888,0.628c0.376,0.092,0.752,0.02,1.068-0.18
				l5.016-3.136l1.696,2.716c0.2,0.32,0.52,0.544,0.888,0.628c0.1,0.024,0.212,0.036,0.316,0.036c0.264,0,0.524-0.076,0.752-0.216
				l6.6-4.132c0.664-0.416,0.868-1.288,0.452-1.952l-1.7-2.716l20.224-12.652c0.32-0.2,0.548-0.516,0.632-0.884
				c0.084-0.368,0.02-0.752-0.18-1.072L185.168,157.378z M166.528,177.91c-0.664,0.416-0.868,1.288-0.452,1.952l1.7,2.716
				l-4.2,2.628l-1.696-2.716c-0.2-0.32-0.52-0.544-0.888-0.628c-0.1-0.024-0.212-0.036-0.316-0.036
				c-0.264,0-0.524,0.076-0.752,0.216l-5.016,3.136l-3.18-5.084l5.012-3.136c0.32-0.2,0.548-0.516,0.632-0.884
				c0.084-0.368,0.02-0.752-0.18-1.072l-10.724-17.14l5.876-4.376l30.74,5.912l3.664,5.856L166.528,177.91z"/>
			<path d="M175.028,162.61l-19.096-3.432c-0.556-0.108-1.108,0.14-1.424,0.6c-0.312,0.464-0.324,1.072-0.028,1.548l6.916,11.056
				c0.268,0.428,0.732,0.668,1.204,0.668c0.256,0,0.52-0.072,0.752-0.216l12.18-7.62c0.5-0.312,0.752-0.896,0.64-1.468
				C176.06,163.162,175.608,162.714,175.028,162.61z M163.048,169.674l-4.468-7.14l12.336,2.22L163.048,169.674z"/>
			<path d="M51.176,88.91c-11.348,0-20.58,9.232-20.58,20.58c0,11.348,9.232,20.58,20.58,20.58c11.348,0,20.58-9.232,20.58-20.58
				S62.524,88.91,51.176,88.91z M33.66,102.546c0.56-0.764,1.424-1.296,2.444-1.296c1.7,0,3.084,1.384,3.084,3.08
				c0,1.7-1.384,3.084-3.084,3.084c-1.64,0-2.96-1.3-3.048-2.916C33.236,103.834,33.412,103.174,33.66,102.546z M45.552,103.198
				c0.744,0,1.412-0.224,2.032-0.548c0.648,1.652,1.292,3.308,1.932,4.964l0.788,2.044c0.048,0.116,0.104,0.232,0.18,0.36
				l0.088,0.172c0.088,0.176,0.304,0.244,0.5,0.256c0.212-0.024,0.424-0.124,0.54-0.284c0.064-0.08,0.14-0.176,0.192-0.308
				l0.952-2.448c0.632-1.632,1.268-3.268,1.908-4.896c0.484,0.184,0.996,0.312,1.54,0.312c0.204,0,0.376-0.088,0.572-0.116
				c0.004,0.052,0,0.108,0.012,0.156c0.356,1.42,0.7,2.84,1.048,4.26l0.748,3.052c0.04,0.184,0.116,0.332,0.196,0.484l0.104,0.204
				c0.08,0.172,0.24,0.292,0.424,0.32c0.18,0.02,0.376-0.04,0.5-0.172l3.22-3.468l0.14-0.14c0.032-0.028,0.064-0.064,0.096-0.096
				c0.56,0.564,1.308,0.892,2.112,1.068c-0.004,0.016-0.012,0.032-0.016,0.044c-0.592,1.616-1.2,3.228-1.804,4.84
				c-0.66,1.736-1.308,3.472-1.944,5.212c-0.176,0.484-0.312,0.584-0.804,0.584h-0.02c-6.612-0.04-13.084-0.036-19.232,0h-0.02
				c-0.624,0-0.804-0.128-1.012-0.7c-0.892-2.476-1.824-4.936-2.752-7.396l-0.964-2.556c0.836-0.148,1.608-0.476,2.2-1.04
				c0.548,0.584,1.092,1.176,1.632,1.764l1.288,1.396c0.1,0.108,0.22,0.208,0.36,0.324l0.22,0.184
				c0.136,0.12,0.34,0.172,0.528,0.116c0.188-0.052,0.332-0.196,0.388-0.38l0.092-0.304c0.06-0.196,0.108-0.352,0.148-0.512
				l0.5-2.068c0.38-1.576,0.764-3.156,1.168-4.728C45.408,103.158,45.476,103.198,45.552,103.198z M42.204,98.718
				c0-1.844,1.5-3.344,3.344-3.344s3.348,1.5,3.348,3.344s-1.504,3.344-3.348,3.344S42.204,100.562,42.204,98.718z M52.952,98.442
				c0-1.788,1.456-3.244,3.248-3.244c1.792,0,3.244,1.456,3.244,3.244s-1.452,3.244-3.244,3.244
				C54.412,101.686,52.952,100.23,52.952,98.442z M61.124,120.19v3.592h-19.9v-3.592h0.32h0.02H61.124z M70.048,109.498
				c0,10.404-8.464,18.872-18.872,18.872c-10.412,0-18.876-8.468-18.876-18.88c0-1.016,0.144-1.992,0.3-2.96
				c0.668,1.06,1.76,1.784,3.064,1.928c-0.02-0.004-0.048,0.012-0.072,0.008c0.036,0.076,0.076,0.132,0.112,0.232l1.008,2.668
				c0.924,2.456,1.856,4.912,2.744,7.38c0.16,0.44,0.376,0.748,0.64,0.98c0,0-0.004,0.004-0.004,0.008v4.512
				c0,0.372,0.3,0.672,0.672,0.672H61.58c0.372,0,0.676-0.304,0.676-0.672v-4.512c0-0.064-0.052-0.104-0.068-0.164
				c0.18-0.2,0.368-0.38,0.488-0.704c0.636-1.74,1.288-3.476,1.936-5.208c0.604-1.612,1.212-3.228,1.804-4.844
				c0.06-0.156,0.16-0.248,0.256-0.348c1.312-0.14,2.404-0.864,3.076-1.928C69.904,107.51,70.048,108.486,70.048,109.498z
				 M68.688,102.542c0.248,0.632,0.424,1.292,0.604,1.952c-0.092,1.62-1.408,2.916-3.048,2.916c-1.7,0-3.084-1.384-3.084-3.084
				c0-1.696,1.384-3.08,3.084-3.08C67.264,101.246,68.124,101.778,68.688,102.542z M66.248,100.114
				c-2.324,0-4.216,1.888-4.216,4.212c0,0.728,0.236,1.384,0.564,1.984c0,0.004,0,0.024,0,0.024c-0.02,0.056-0.132,0.164-0.216,0.24
				c-0.068,0.064-0.128,0.128-0.192,0.192l-2.592,2.796l-0.66-2.712c-0.348-1.424-0.692-2.848-1.048-4.264
				c-0.016-0.072-0.016-0.076-0.02-0.104c1.588-0.656,2.712-2.216,2.712-4.04c0-2.416-1.96-4.376-4.376-4.376
				s-4.38,1.964-4.38,4.376c0,1.452,0.756,2.68,1.852,3.476c-0.664,1.688-1.324,3.384-1.98,5.076l-0.608,1.544l-0.52-1.34
				c-0.668-1.728-1.336-3.46-2.016-5.188c-0.004-0.012,0.004-0.008,0-0.02c0.896-0.82,1.48-1.972,1.48-3.28
				c0-2.472-2.008-4.48-4.48-4.48c-2.468,0-4.476,2.008-4.476,4.48c0,1.996,1.336,3.632,3.14,4.208
				c-0.396,1.56-0.776,3.124-1.152,4.688l-0.472,1.952l-1.112-1.208c-0.596-0.648-1.192-1.292-1.792-1.936
				c0.368-0.624,0.636-1.316,0.636-2.092c0-2.324-1.892-4.212-4.216-4.212c-0.484,0-0.932,0.124-1.364,0.276
				c3.22-5.796,9.336-9.776,16.432-9.776s13.212,3.98,16.436,9.78C67.18,100.238,66.732,100.114,66.248,100.114z"/>
		</g>
	</g>
</g>
</svg>