<?xml version="1.0" standalone="no"?>
<!DOCTYPE svg PUBLIC "-//W3C//DTD SVG 20010904//EN"
 "http://www.w3.org/TR/2001/REC-SVG-20010904/DTD/svg10.dtd">
<svg version="1.0" xmlns="http://www.w3.org/2000/svg"
 width="500.000000pt" height="500.000000pt" viewBox="0 0 500.000000 500.000000"
 preserveAspectRatio="xMidYMid meet">
<metadata>
Created by potrace 1.14, written by Peter Selinger 2001-2017
</metadata>
<g transform="translate(0.000000,500.000000) scale(0.100000,-0.100000)"
fill="#000000" stroke="none">
<path d="M1944 3737 c-50 -50 -156 -155 -236 -232 l-145 -140 0 -1048 -1
-1047 31 -1 c18 0 122 -1 231 -2 149 -2 200 -5 204 -15 2 -7 46 31 99 86 l95
98 0 241 c0 132 -3 246 -6 252 -4 6 -4 11 1 11 4 0 7 81 6 180 l-2 180 262 1
c259 1 309 0 315 -6 2 -2 3 -233 3 -513 -1 -477 0 -510 17 -514 9 -2 45 -3 80
-2 39 0 62 -3 63 -10 1 -6 2 -31 4 -56 1 -25 3 -51 4 -57 1 -9 21 -13 64 -13
l62 0 179 177 180 178 -1 1127 c0 621 -2 1130 -4 1133 -5 4 -173 6 -471 5
l-177 0 0 -367 c-1 -203 -1 -410 -1 -460 0 -90 0 -93 -22 -93 -48 -1 -534 -1
-544 -1 -8 1 -11 69 -12 224 0 122 -1 227 -2 232 -1 6 -2 12 -1 15 2 5 3 359
2 418 l-1 32 -88 0 -89 0 3 40 c1 22 -1 40 -4 40 -4 0 -48 -42 -98 -93z"/>
</g>
</svg>
